<svg xmlns="http://www.w3.org/2000/svg" viewBox="0 0 24 24" role="img" aria-label="WhatsApp">
  <path fill="#FFFFFF" d="M12.04 2.01C6.6 2.01 2.28 6.32 2.28 11.76c0 2.04.62 3.92 1.69 5.5l-1 4.01 4.13-1.08c1.5.88 3.26 1.37 5.05 1.37 5.44 0 9.76-4.32 9.76-9.76S17.48 2.01 12.04 2.01zm3.86 12.64c-.27.77-1.55 1.47-2.2 1.57-.6.1-1.36.13-2.56-.25-3.29-1.05-5.43-3.64-5.61-3.87-.18-.23-1.47-1.89-1.47-3.61 0-1.72.86-2.57 1.17-2.92.31-.35.69-.44.95-.44.25 0 .5 0 .73 0 .25.01.59-.09.95.69.36.78 1.21 2.7 1.32 2.9.11.2.18.44.02.71-.16.27-.25.44-.5.71-.26.27-.56.59-.8.86-.25.27-.51.45-.27.86.25.41 1.12 1.83 2.41 2.97 1.64 1.43 2.82 1.77 3.02 1.97.2.2.6.06 1-.11.4-.17 1.3-.71 1.48-1.4.17-.69.17-1.28.12-1.4-.06-.13-.25-.2-.52-.35z"/>
</svg>